<svg xmlns="http://www.w3.org/2000/svg" viewBox="0 0 480 400" role="img" aria-labelledby="mmcTitle mmcDesc">
  <title id="mmcTitle">CloudPlatform 项目宠物「云团」</title>
  <desc id="mmcDesc">一朵抱着服务器的云朵精灵——云是平台，服务器是资源，双臂环抱即自动交付与托管；外围轨道环串起地球与增长箭头，对应全球交易与按量计费。</desc>

  <defs>
    <linearGradient id="mcSky" x1="0" y1="0" x2="0" y2="1">
      <stop offset="0%" stop-color="#f7fbff"/>
      <stop offset="100%" stop-color="#e1ecfb"/>
    </linearGradient>
    <linearGradient id="mcCloud" gradientUnits="userSpaceOnUse" x1="140" y1="110" x2="350" y2="270">
      <stop offset="0%" stop-color="#ffffff"/>
      <stop offset="60%" stop-color="#e8f1fd"/>
      <stop offset="100%" stop-color="#c9dffa"/>
    </linearGradient>
    <linearGradient id="mcServerFill" gradientUnits="userSpaceOnUse" x1="180" y1="238" x2="300" y2="316">
      <stop offset="0%" stop-color="#3f4e63"/>
      <stop offset="100%" stop-color="#1c2735"/>
    </linearGradient>
    <linearGradient id="mcCoin" x1="0" y1="0" x2="0" y2="1">
      <stop offset="0%" stop-color="#fcd34d"/>
      <stop offset="100%" stop-color="#f59e0b"/>
    </linearGradient>
    <filter id="mcSoft" x="-25%" y="-25%" width="150%" height="150%">
      <feDropShadow dx="0" dy="5" stdDeviation="8" flood-color="#1e40af" flood-opacity="0.12"/>
    </filter>
    <clipPath id="mcClip"><rect width="480" height="400" rx="26"/></clipPath>

    <g id="mcBody">
      <circle cx="165" cy="205" r="54"/>
      <circle cx="240" cy="172" r="68"/>
      <circle cx="315" cy="205" r="54"/>
      <rect x="114" y="200" width="252" height="60" rx="30"/>
    </g>
    <g id="mcArmL"><path d="M144,220 C144,268 166,300 196,300" fill="none" stroke-linecap="round"/></g>
    <g id="mcArmR"><path d="M336,220 C336,268 314,300 284,300" fill="none" stroke-linecap="round"/></g>
    <g id="mcServer">
      <rect x="178" y="238" width="124" height="76" rx="12"/>
    </g>
  </defs>

  <g clip-path="url(#mcClip)">
    <rect width="480" height="400" rx="26" fill="url(#mcSky)"/>

    <!-- 背景星点 -->
    <g fill="#93c5fd" opacity="0.38">
      <circle cx="52" cy="96" r="2.5"/>
      <circle cx="112" cy="52" r="2"/>
      <circle cx="430" cy="92" r="2.5"/>
      <circle cx="404" cy="330" r="2"/>
      <circle cx="66" cy="332" r="2"/>
    </g>

    <!-- 轨道环：全球 + 计费 两个节点 -->
    <g transform="rotate(-14 240 235)">
      <ellipse cx="240" cy="235" rx="200" ry="58" fill="none" stroke="#9dc4f6" stroke-width="2" stroke-dasharray="7,7" opacity="0.85"/>
    </g>
    <g transform="translate(46,283)">
      <circle r="18" fill="#ffffff" stroke="#3b82f6" stroke-width="2.5"/>
      <ellipse rx="9" ry="18" fill="none" stroke="#60a5fa" stroke-width="1.6"/>
      <path d="M-17,0 h34 M-14.5,-8 h29 M-14.5,8 h29" stroke="#60a5fa" stroke-width="1.6" fill="none"/>
    </g>
    <g transform="translate(434,187)">
      <circle r="18" fill="url(#mcCoin)" stroke="#d97706" stroke-width="2"/>
      <path d="M-9,6 L-2.5,-0.5 L2,-2.5 L9,-9" fill="none" stroke="#92400e" stroke-width="3" stroke-linecap="round" stroke-linejoin="round"/>
      <path d="M3,-9 H9 V-3" fill="none" stroke="#92400e" stroke-width="3" stroke-linecap="round" stroke-linejoin="round"/>
    </g>

    <!-- 云朵身体（并集轮廓 + 填充） -->
    <g stroke="#b6d1f3" stroke-width="6" stroke-linejoin="round" fill="#b6d1f3">
      <use href="#mcBody"/>
    </g>
    <g fill="url(#mcCloud)" filter="url(#mcSoft)">
      <use href="#mcBody"/>
    </g>
    <g fill="#ffffff" opacity="0.6">
      <ellipse cx="216" cy="140" rx="46" ry="16"/>
      <ellipse cx="168" cy="180" rx="24" ry="10"/>
    </g>

    <!-- 表情 -->
    <g fill="#1e3a8a">
      <ellipse cx="212" cy="170" rx="9" ry="10.5"/>
      <ellipse cx="268" cy="170" rx="9" ry="10.5"/>
    </g>
    <g fill="#ffffff" opacity="0.9">
      <circle cx="209" cy="166" r="3.2"/>
      <circle cx="265" cy="166" r="3.2"/>
    </g>
    <g fill="#93c5fd" opacity="0.5">
      <ellipse cx="186" cy="190" rx="14" ry="8"/>
      <ellipse cx="294" cy="190" rx="14" ry="8"/>
    </g>
    <path d="M226,190 Q240,204 254,190" fill="none" stroke="#1e3a8a" stroke-width="4" stroke-linecap="round"/>

    <!-- 服务器 -->
    <g stroke="#0f172a" stroke-width="3" fill="url(#mcServerFill)"><use href="#mcServer"/></g>
    <rect x="189" y="248" width="102" height="20" rx="5" fill="#0f172a" opacity="0.45"/>
    <g>
      <circle cx="200" cy="258" r="4.5" fill="#22c55e"/>
      <circle cx="215" cy="258" r="4.5" fill="#38bdf8"/>
      <circle cx="230" cy="258" r="4.5" fill="#38bdf8"/>
    </g>
    <rect x="243" y="252" width="42" height="12" rx="3" fill="#0ea5e9" opacity="0.32"/>
    <g stroke="#64748b" stroke-width="3" stroke-linecap="round" opacity="0.85">
      <path d="M214,284 H286"/>
      <path d="M214,296 H286"/>
      <path d="M214,306 H266"/>
    </g>
    <g stroke="#38bdf8" stroke-width="3" stroke-linecap="round" opacity="0.7">
      <path d="M274,306 H286"/>
    </g>

    <!-- 手臂：压在服务器前方，读作「抱住」 -->
    <g stroke="#b6d1f3" stroke-width="26" fill="none" stroke-linecap="round"><use href="#mcArmL"/><use href="#mcArmR"/></g>
    <g stroke="url(#mcCloud)" stroke-width="19" fill="none" stroke-linecap="round"><use href="#mcArmL"/><use href="#mcArmR"/></g>
  </g>

  <rect x="0.5" y="0.5" width="479" height="399" rx="26" fill="none" stroke="#c7ddf7"/>
</svg>
